<svg width="24" height="25" viewBox="0 0 24 25" fill="none" xmlns="http://www.w3.org/2000/svg">
<path fill-rule="evenodd" clip-rule="evenodd" d="M12 2.75C12.1989 2.75 12.3897 2.82902 12.5303 2.96967C12.671 3.11032 12.75 3.30109 12.75 3.5V15.19L15.97 11.97C16.0387 11.8963 16.1215 11.8372 16.2135 11.7962C16.3055 11.7552 16.4048 11.7332 16.5055 11.7314C16.6062 11.7296 16.7062 11.7482 16.7996 11.7859C16.893 11.8236 16.9778 11.8797 17.049 11.951C17.1203 12.0222 17.1764 12.107 17.2141 12.2004C17.2518 12.2938 17.2704 12.3938 17.2686 12.4945C17.2668 12.5952 17.2448 12.6945 17.2038 12.7865C17.1628 12.8785 17.1037 12.9613 17.03 13.03L12.53 17.53C12.3894 17.6705 12.1988 17.7493 12 17.7493C11.8012 17.7493 11.6106 17.6705 11.47 17.53L6.97 13.03C6.89631 12.9613 6.83721 12.8785 6.79622 12.7865C6.75523 12.6945 6.73319 12.5952 6.73141 12.4945C6.72963 12.3938 6.74816 12.2938 6.78588 12.2004C6.8236 12.107 6.87974 12.0222 6.95096 11.951C7.02218 11.8797 7.10701 11.8236 7.2004 11.7859C7.29379 11.7482 7.39382 11.7296 7.49452 11.7314C7.59523 11.7332 7.69454 11.7552 7.78654 11.7962C7.87854 11.8372 7.96134 11.8963 8.03 11.97L11.25 15.19V3.5C11.25 3.30109 11.329 3.11032 11.4697 2.96967C11.6103 2.82902 11.8011 2.75 12 2.75ZM3 16.25C3.19891 16.25 3.38968 16.329 3.53033 16.4697C3.67098 16.6103 3.75 16.8011 3.75 17V19.25C3.75 19.6478 3.90804 20.0294 4.18934 20.3107C4.47064 20.592 4.85218 20.75 5.25 20.75H18.75C19.1478 20.75 19.5294 20.592 19.8107 20.3107C20.092 20.0294 20.25 19.6478 20.25 19.25V17C20.25 16.8011 20.329 16.6103 20.4697 16.4697C20.6103 16.329 20.8011 16.25 21 16.25C21.1989 16.25 21.3897 16.329 21.5303 16.4697C21.671 16.6103 21.75 16.8011 21.75 17V19.25C21.75 20.0456 21.4339 20.8087 20.8713 21.3713C20.3087 21.9339 19.5456 22.25 18.75 22.25H5.25C4.45435 22.25 3.69129 21.9339 3.12868 21.3713C2.56607 20.8087 2.25 20.0456 2.25 19.25V17C2.25 16.8011 2.32902 16.6103 2.46967 16.4697C2.61032 16.329 2.80109 16.25 3 16.25Z" fill="white"/>
</svg>
